<svg width="276" height="72" viewBox="0 0 276 72" fill="none" xmlns="http://www.w3.org/2000/svg">
    <path fill-rule="evenodd" clip-rule="evenodd" d="M219.569 12.8162C219.582 13.4049 219.598 14.0102 219.614 14.6308C219.784 21.0698 219.998 29.1531 216.977 37.2962L212.657 48.8882L211.001 48.6722L197.105 12.8162H188.465L202.505 48.9602C195.449 50.1122 189.473 53.6402 189.473 60.2642C189.473 65.0162 193.361 68.0402 198.977 68.0402C206.321 68.0402 215.897 62.2802 212.297 51.9122L213.161 49.5362C216.833 50.1842 220.145 51.3362 222.233 52.7042L222.449 52.0562C220.289 50.7602 217.049 49.6082 213.377 48.9602L226.769 12.8162H219.569ZM211.289 49.3202C211.649 49.3202 212.081 49.3922 212.513 49.4642L211.937 50.9762L211.289 49.3202ZM189.977 60.1922C189.977 64.3682 193.289 67.3202 197.825 67.3202C202.937 67.3202 207.761 62.4962 204.449 53.8562L202.721 49.4642C195.809 50.5442 189.977 53.9282 189.977 60.1922Z" fill="black"/>
    <path fill-rule="evenodd" clip-rule="evenodd" d="M189.761 52.0562C189.257 53.1362 188.177 54.0002 187.169 54.0002C185.873 54.0002 184.721 52.7042 184.721 49.3922V21.0962C184.721 14.2562 179.609 11.4482 172.913 11.4482C166.361 11.4482 158.369 14.1842 152.249 18.7202C154.913 21.6722 157.289 24.3362 159.449 26.8562C152.609 30.3122 148.217 35.2802 148.217 42.2642C148.217 50.9042 156.281 55.6562 162.977 55.6562C167.873 55.6562 172.121 53.1362 172.121 47.8082C172.121 42.7682 169.025 37.1522 162.113 29.0162C165.065 26.1362 169.457 23.6882 176.081 22.1762V47.8082C176.081 53.3522 179.969 55.6562 183.713 55.6562C186.449 55.6562 189.185 54.3602 190.193 52.2722L189.761 52.0562ZM156.929 23.1842C162.905 15.8402 167.585 12.0242 170.969 12.0242C174.137 12.0242 176.009 15.3362 176.081 21.6722C170.105 22.8242 164.561 24.4082 160.025 26.6402C159.089 25.4882 158.009 24.3362 156.929 23.1842ZM156.857 42.5522C156.857 49.9682 161.753 53.7842 165.857 53.7842C168.809 53.7842 171.401 51.9122 171.401 47.8082C171.401 42.4802 167.801 36.7922 161.681 29.5202C157.865 33.5522 156.857 38.3762 156.857 42.5522Z" fill="black"/>
    <path d="M144.257 54.4322V0.000244141H135.617V54.4322H144.257Z" fill="black"/>
    <path d="M110.921 55.2963C121.937 55.2963 130.937 49.5363 130.937 39.8883C130.937 24.0483 98.897 22.4643 98.897 10.5123C98.897 5.83227 102.425 3.67227 106.961 3.67227C112.073 3.67227 118.985 7.12827 123.881 12.8163L128.633 7.77627C123.089 4.39227 116.249 2.73627 109.985 2.73627C100.337 2.73627 92.129 6.69627 92.129 14.6883C92.129 27.8643 125.177 31.1043 124.889 44.7123C124.745 50.9763 120.929 53.8563 115.673 53.8563C110.417 53.8563 103.289 50.1843 97.313 43.8483L92.489 49.9683C98.393 53.5683 104.945 55.2963 110.921 55.2963V55.2963Z" fill="black"/>
    <path d="M63.395 1.71023C63.517 1.82423 63.585 1.96723 63.679 2.11423C67.154 7.68223 70.641 13.2502 74.116 18.8202C68.419 18.8232 62.722 18.8232 57.026 18.8202C59.094 13.2582 61.17 7.69723 63.239 2.13623C63.292 1.99323 63.344 1.85223 63.395 1.70923V1.71023Z" fill="#FF8A00"/>
    <path d="M73.734 21.5102C62.758 35.1502 51.759 48.7872 40.78 62.4272C45.86 48.7892 50.938 35.1492 56.024 21.5102C61.919 21.5042 67.837 21.5102 73.734 21.5102Z" fill="#FF8A00"/>
    <path opacity="0.85" d="M40.3879 0.00225C47.3129 -0.00075 54.2379 -0.00075 61.1629 0.00225C58.9913 5.84106 56.8167 11.6787 54.6389 17.5152C53.3509 15.9992 51.9979 14.2743 50.7189 12.7203C47.2759 8.48025 43.8289 4.24325 40.3879 0.00225H40.3879Z" fill="#FF8A00"/>
    <path opacity="0.66" d="M37.534 0.818237L37.589 0.824237C42.462 6.82424 47.339 12.8302 52.217 18.8242C42.449 18.8172 32.68 18.8292 22.912 18.8172C27.783 12.8202 32.667 6.82024 37.534 0.818237Z" fill="#FF8A00"/>
    <path opacity="0.66" d="M13.939 0.000244141H34.734C29.955 5.88524 25.174 11.7682 20.392 17.6512C18.236 11.7712 16.088 5.88424 13.939 0.00124414L13.939 0.000244141Z" fill="#FF8A00"/>
    <path opacity="0.66" d="M21.802 21.5102C32.25 21.5052 42.701 21.5102 53.148 21.5082C47.885 35.6682 42.59 49.8382 37.326 64.0002C32.145 49.8392 26.9704 35.6759 21.802 21.5102H21.802Z" fill="#FF8A00"/>
    <path opacity="0.5" d="M11.122 2.07L11.212 2C13.291 7.69 15.375 13.383 17.451 19.073C11.8 19.076 6.151 19.076 0.5 19.073C4.04 13.405 7.589 7.74 11.122 2.07Z" fill="#FF8A00"/>
    <path opacity="0.5" d="M1.38403 21.5073C7.22403 21.5103 13.066 21.5073 18.908 21.5083L18.952 21.5573C23.792 34.8153 28.655 48.0953 33.488 61.3523C22.83 48.1483 12.044 34.7393 1.38403 21.5073Z" fill="#FF8A00"/>
    <path d="M111.267 55.1898C105.302 55.1898 98.763 53.4651 92.8703 49.872L97.685 43.7638C103.65 50.0876 110.764 53.7525 116.01 53.7525C121.256 53.7525 125.064 50.8781 125.208 44.6261C125.496 31.0443 92.511 27.8105 92.511 14.6598C92.511 6.68314 100.703 2.73074 110.333 2.73074C116.585 2.73074 123.412 4.38356 128.945 7.76106L124.202 12.7914C119.315 7.11431 112.417 3.66495 107.314 3.66495C102.787 3.66495 99.266 5.8208 99.266 10.4918C99.266 22.4208 131.244 24.0018 131.244 39.8114C131.244 49.4408 122.262 55.1898 111.267 55.1898Z" fill="black"/>
    <path d="M144.538 54.3274H135.914V0H144.538V54.3274Z" fill="black"/>
    <path d="M189.968 51.956L190.4 52.1716C189.393 54.2556 186.663 55.5491 183.932 55.5491C180.195 55.5491 176.315 53.2495 176.315 47.7162V22.1334C169.703 23.6425 165.32 26.0858 162.373 28.9603C169.272 37.0806 172.362 42.6858 172.362 47.7162C172.362 53.0339 168.122 55.5491 163.236 55.5491C156.553 55.5491 148.504 50.8062 148.504 42.1828C148.504 35.2122 152.888 30.2538 159.715 26.8044C157.559 24.2893 155.187 21.6304 152.528 18.684C158.637 14.1568 166.613 11.426 173.153 11.426C179.836 11.426 184.938 14.2286 184.938 21.0555V49.2971C184.938 52.6028 186.088 53.8963 187.381 53.8963C188.387 53.8963 189.465 53.0339 189.968 51.956ZM157.199 23.1395C158.277 24.2893 159.355 25.439 160.289 26.5888C164.817 24.3611 170.35 22.7802 176.315 21.6304C176.243 15.3065 174.374 12.0009 171.212 12.0009C167.835 12.0009 163.164 15.8096 157.199 23.1395ZM166.11 53.6807C169.057 53.6807 171.644 51.8123 171.644 47.7162C171.644 42.3984 168.051 36.7213 161.942 29.4633C158.134 33.4875 157.128 38.3023 157.128 42.4703C157.128 49.872 162.014 53.6807 166.11 53.6807Z" fill="black"/>
    <path d="M219.72 12.7914H226.906L213.54 48.8659C217.204 49.5127 220.438 50.6625 222.594 51.956L222.379 52.6028C220.295 51.2374 216.989 50.0876 213.324 49.4408L212.462 51.8123C216.055 62.1604 206.497 67.9093 199.167 67.9093C193.562 67.9093 189.681 64.8911 189.681 60.1482C189.681 53.537 195.646 50.0157 202.688 48.8659L188.675 12.7914H197.299L211.168 48.5785L212.821 48.7941L217.133 37.2244C220.438 28.3135 219.863 19.4745 219.72 12.7914ZM211.456 49.2253L212.102 50.8781L212.677 49.369C212.246 49.2971 211.815 49.2253 211.456 49.2253ZM198.017 67.1907C203.12 67.1907 207.934 62.3759 204.629 53.7525L202.904 49.369C196.005 50.4469 190.184 53.8244 190.184 60.0764C190.184 64.2443 193.49 67.1907 198.017 67.1907Z" fill="black"/>
    <path d="M261.615 71.5024C253.351 71.5024 245.877 60.9387 232.224 62.5915V61.8729L250.764 55.6209V55.5491C234.379 55.5491 226.69 42.8296 226.69 29.1758C226.69 15.1628 234.092 2.65888 250.908 2.65888C267.723 2.65888 275.125 15.1628 275.125 29.1758C275.125 42.6858 268.083 54.9023 252.201 55.5491L237.038 60.8668V60.9387C247.674 59.4296 257.95 61.6573 265.064 61.6573C269.664 61.6573 272.179 59.5733 274.694 54.4712L275.053 54.6149C272.107 63.3101 268.226 71.5024 261.615 71.5024ZM250.692 54.8305C256.872 54.8305 260.393 40.9612 260.393 27.6667C260.393 15.3065 257.375 3.3775 250.692 3.3775C244.512 3.3775 241.35 16.2407 241.35 29.104C241.35 41.9672 244.512 54.8305 250.692 54.8305Z" fill="black"/>
</svg>
